<svg width="20" height="20" viewBox="0 0 20 20" fill="none" xmlns="http://www.w3.org/2000/svg">
<path fill-rule="evenodd" clip-rule="evenodd" d="M14.7068 12.1498C14.8946 12.3256 15 12.564 15 12.8126C15 13.0612 14.8946 13.2996 14.7068 13.4755L10.7018 17.2255C10.5141 17.4013 10.2595 17.5 9.99395 17.5C9.72846 17.5 9.47383 17.4013 9.28607 17.2255L5.28106 13.4755C5.09868 13.2986 4.99776 13.0618 5.00004 12.816C5.00232 12.5702 5.10762 12.3351 5.29326 12.1612C5.4789 11.9874 5.73003 11.8888 5.99255 11.8867C6.25508 11.8845 6.50799 11.979 6.69683 12.1498L8.9927 14.2995L8.9927 3.43751C8.9927 3.18887 9.09819 2.95041 9.28596 2.77459C9.47373 2.59877 9.72841 2.5 9.99396 2.5C10.2595 2.5 10.5142 2.59877 10.7019 2.77459C10.8897 2.95041 10.9952 3.18887 10.9952 3.43751L10.9952 14.2995L13.2911 12.1498C13.4788 11.9741 13.7335 11.8753 13.999 11.8753C14.2645 11.8753 14.5191 11.9741 14.7068 12.1498Z" fill="#616D8D"/>
</svg>
