<svg width="20" height="20" viewBox="0 0 20 20" fill="none" xmlns="http://www.w3.org/2000/svg">
<path fill-rule="evenodd" clip-rule="evenodd" d="M5.29315 7.85018C5.10545 7.67437 5 7.43596 5 7.18736C5 6.93877 5.10545 6.70035 5.29315 6.52454L9.29816 2.77449C9.48592 2.59873 9.74055 2.5 10.006 2.5C10.2715 2.5 10.5262 2.59873 10.7139 2.77449L14.7189 6.52454C14.9013 6.70136 15.0022 6.93818 15 7.18399C14.9977 7.4298 14.8924 7.66494 14.7067 7.83876C14.5211 8.01259 14.27 8.11118 14.0074 8.11332C13.7449 8.11546 13.492 8.02096 13.3032 7.85018L11.0073 5.70047L11.0073 16.5625C11.0073 16.8111 10.9018 17.0496 10.714 17.2254C10.5263 17.4012 10.2716 17.5 10.006 17.5C9.7405 17.5 9.48582 17.4012 9.29805 17.2254C9.11028 17.0496 9.00479 16.8111 9.00479 16.5625L9.00479 5.70047L6.70892 7.85018C6.52116 8.02594 6.26653 8.12467 6.00104 8.12467C5.73554 8.12467 5.48092 8.02594 5.29315 7.85018Z" fill="#616D8D"/>
</svg>
