<svg width="24" height="25" viewBox="0 0 24 25" fill="none" xmlns="http://www.w3.org/2000/svg">
<rect y="0.5" width="24" height="24" rx="4" fill="#222B44"/>
<path d="M18.2788 7.68485H15.2V6.49697C15.2 5.98788 14.7879 5.57576 14.2788 5.57576H9.64849C9.1394 5.57576 8.72728 5.98788 8.72728 6.49697V7.68485H5.72122C4.89698 7.68485 4.24243 8.36364 4.24243 9.16364V10.0121L11.1273 13.2121C11.1758 12.7515 11.5394 12.3879 12 12.3879C12.4606 12.3879 12.8485 12.7515 12.8727 13.2121L19.7576 10.0121V9.16364C19.7576 8.36364 19.103 7.68485 18.2788 7.68485ZM14.7152 7.68485H9.21213V6.49697C9.21213 6.25455 9.40607 6.06061 9.64849 6.06061H14.2788C14.5212 6.06061 14.7152 6.25455 14.7152 6.49697V7.68485Z" fill="#4785FF"/>
<path d="M12.4121 14.3273V13.2848C12.4121 13.0667 12.2424 12.8727 12 12.8727C11.7576 12.8727 11.5879 13.0424 11.5879 13.2848V14.3273C11.5879 14.5455 11.7576 14.7394 12 14.7394C12.2424 14.7394 12.4121 14.5455 12.4121 14.3273Z" fill="#4785FF"/>
<path d="M12.897 14.3273C12.897 14.8121 12.5091 15.2242 12 15.2242C11.4909 15.2242 11.103 14.8364 11.103 14.3273V13.7455L4.24243 10.5455V16.9455C4.24243 17.7697 4.89698 18.4242 5.72122 18.4242H18.2788C19.103 18.4242 19.7576 17.7697 19.7576 16.9455V10.5455L12.897 13.7455V14.3273Z" fill="#4785FF"/>
</svg>
